<svg width="26" height="23" viewBox="0 0 26 23" fill="none" xmlns="http://www.w3.org/2000/svg">
<path d="M24.0755 0.0021424C23.7395 0.0175343 23.423 0.113733 23.1417 0.221476H23.1378C22.8525 0.333067 21.4968 0.89487 19.4377 1.74527C17.3787 2.59952 14.7062 3.70773 12.0532 4.80825C6.75519 7.00544 1.54699 9.16799 1.54699 9.16799L1.60951 9.1449C1.60951 9.1449 1.25005 9.26034 0.874968 9.51431C0.683519 9.63744 0.472534 9.80675 0.2889 10.0723C0.105265 10.3378 -0.0432065 10.7457 0.0114937 11.1651C0.101358 11.877 0.570213 12.3041 0.906225 12.5388C1.24614 12.7774 1.57044 12.889 1.57044 12.889H1.57825L6.46215 14.509C6.68095 15.2016 7.95077 19.3112 8.25552 20.2578C8.43525 20.8235 8.61107 21.1775 8.82987 21.4468C8.93536 21.5854 9.06039 21.7008 9.20886 21.7932C9.26747 21.8278 9.32998 21.8547 9.3925 21.8778C9.41203 21.8894 9.43157 21.8932 9.45501 21.8971L9.40422 21.8855C9.41984 21.8894 9.43157 21.9009 9.44329 21.9048C9.48236 21.9163 9.50971 21.9201 9.5605 21.9278C10.3341 22.1587 10.9553 21.6854 10.9553 21.6854L10.9905 21.6585L13.874 19.0726L18.7071 22.7244L18.8165 22.7705C19.8245 23.2054 20.8443 22.9629 21.3835 22.5358C21.9265 22.1048 22.1375 21.5546 22.1375 21.5546L22.1727 21.4661L25.9079 2.62261C26.0134 2.157 26.0407 1.72218 25.9235 1.29891C25.8063 0.87563 25.5055 0.47929 25.1421 0.267652C24.7748 0.0521657 24.4115 -0.0132495 24.0755 0.0021424ZM23.9739 2.02232C23.97 2.08389 23.9817 2.07619 23.9543 2.19548V2.20703L20.2543 20.8543C20.2387 20.8812 20.2113 20.9389 20.1371 20.9966C20.0589 21.0582 19.9964 21.0967 19.6721 20.9697L13.7607 16.5061L10.1895 19.7114L10.9397 14.9938C10.9397 14.9938 20.1996 6.49366 20.5981 6.1281C20.9967 5.76254 20.8638 5.68558 20.8638 5.68558C20.8912 5.23922 20.2621 5.55475 20.2621 5.55475L8.08361 12.9852L8.0797 12.9659L2.24246 11.0304V11.0266C2.23855 11.0266 2.23074 11.0227 2.22683 11.0227C2.23074 11.0227 2.25809 11.0112 2.25809 11.0112L2.28935 10.9958L2.3206 10.9842C2.3206 10.9842 7.5327 8.82168 12.8308 6.62449C15.4837 5.52397 18.1562 4.41576 20.2113 3.56151C22.2665 2.71111 23.7863 2.08774 23.8723 2.05311C23.9543 2.02232 23.9153 2.02232 23.9739 2.02232Z" fill="#06D6A0"/>
</svg>
