<svg width="26" height="26" viewBox="0 0 26 26" fill="none" xmlns="http://www.w3.org/2000/svg">
<path d="M22.2097 3.77813C19.765 1.34063 16.5135 0 13.0498 0C5.91496 0 0.107782 5.7785 0.107782 12.883C0.107782 15.1531 0.705483 17.3729 1.8372 19.3229L0 26L6.86377 24.2076C8.75649 25.233 10.886 25.7774 13.0482 25.7774H13.0531C20.1879 25.7774 26 19.9989 26 12.8944C26 9.451 24.6527 6.21725 22.208 3.77975L22.2097 3.77813ZM13.0531 23.6031C11.1195 23.6031 9.22517 23.0847 7.57251 22.1098L7.17895 21.8757L3.10609 22.9369L4.19371 18.9865L3.93895 18.5802C2.85623 16.8789 2.29119 14.9094 2.29119 12.883C2.29119 6.97775 7.11852 2.17263 13.0596 2.17263C15.9322 2.17263 18.6382 3.29062 20.668 5.3105C22.6996 7.33687 23.8166 10.023 23.8166 12.8862C23.8117 18.7964 18.9844 23.6015 13.0531 23.6015V23.6031ZM18.9533 15.5805C18.6316 15.418 17.0394 14.6413 16.7438 14.534C16.4482 14.4268 16.2326 14.3715 16.0138 14.6965C15.7999 15.0166 15.1777 15.743 14.9883 15.9607C14.7988 16.1736 14.611 16.2045 14.2893 16.042C13.9676 15.8795 12.9208 15.5399 11.6862 14.443C10.726 13.5899 10.0744 12.5336 9.88493 12.2135C9.6955 11.8934 9.8637 11.7162 10.0286 11.5586C10.1773 11.4156 10.3504 11.1832 10.5137 10.9948C10.677 10.8062 10.7276 10.6746 10.8354 10.4569C10.9432 10.244 10.8909 10.0555 10.8092 9.893C10.7276 9.7305 10.0793 8.14612 9.81471 7.501C9.55505 6.8705 9.28397 6.95825 9.08473 6.94688C8.8953 6.93713 8.68136 6.93713 8.46743 6.93713C8.2535 6.93713 7.90076 7.01837 7.60518 7.3385C7.30959 7.65862 6.47183 8.44025 6.47183 10.0246C6.47183 11.609 7.62967 13.1381 7.79298 13.3559C7.95628 13.5687 10.0744 16.8236 13.3193 18.2162C14.0901 18.5461 14.6927 18.7444 15.1614 18.8971C15.9371 19.1409 16.6409 19.1051 17.1978 19.0239C17.82 18.9329 19.1117 18.2471 19.3828 17.4947C19.6539 16.7424 19.6539 16.0989 19.5723 15.9656C19.4955 15.8226 19.2816 15.743 18.955 15.5789L18.9533 15.5805Z" fill="#06D6A0"/>
</svg>
