<svg width="130" height="70" viewBox="0 0 130 70" fill="none" xmlns="http://www.w3.org/2000/svg">
<path d="M108.386 43.2818C108.699 43.9136 111.205 44.8614 114.024 46.1251C116.843 47.3888 120.289 48.3366 122.482 48.9684C119.663 50.864 116.843 52.7595 114.337 54.3392C105.88 59.7099 96.7952 63.501 87.7108 64.4488C78.6265 65.3965 69.5422 63.1851 62.6506 57.8143C55.759 52.7595 51.0602 45.1773 49.1807 37.2792C47.3012 29.697 48.5542 21.167 53.5663 16.1122C56.0723 13.9007 59.5181 12.637 62.6506 12.3211C65.7831 12.3211 68.9157 13.9007 71.1084 16.1122C73.3012 18.6396 74.5542 21.4829 74.5542 24.6422C74.8675 27.8014 73.9277 30.6448 72.3614 33.4881C69.2289 38.8588 64.2169 42.334 58.5783 43.5977C53.253 45.1773 47.6145 45.1773 42.2892 44.2296C37.2771 43.2818 32.5783 41.7021 28.506 39.4907C24.4337 37.2792 20.988 34.7518 17.8554 31.9085C12.2169 26.8537 8.45783 20.8511 5.95181 16.1122C1.56627 6.00258 1.56627 0 0.939759 0C0.626506 0 0.313253 0.315925 0 1.89555C0 3.47518 0 6.31851 1.25301 11.0574C2.19277 15.7963 4.6988 22.4307 10.9639 30.3288C14.0964 34.1199 18.1687 38.227 23.8072 41.7021C29.4458 45.1773 36.3374 48.3366 44.7952 49.2844C50.1205 49.9162 55.4458 49.6003 60.7711 48.0207C65.7831 46.441 70.7952 43.5977 74.241 39.1747C77.6868 35.0677 79.8795 29.3811 79.253 23.6944C78.6265 18.0077 75.494 12.637 70.7952 9.79369C68.6024 8.21406 65.7831 7.26628 62.6506 7.58221C59.8313 7.58221 57.012 8.52998 54.8193 9.47776C50.1205 12.0052 46.6747 16.4281 45.1084 21.167C41.9759 30.6448 43.8554 40.4384 47.9277 48.3366C52 56.2347 58.2651 62.2373 65.1566 65.7125C72.0482 69.5036 79.8795 70.4514 86.4578 69.8195C93.0361 69.1877 98.988 67.608 104 65.3966C109.012 63.1851 113.084 60.9736 116.843 58.7621C122.169 55.2869 123.735 54.3392 124.988 53.0755C124.675 57.4984 124.048 65.7125 124.988 67.2921C128.434 61.6054 129.373 52.4436 130 46.757C129.06 46.441 115.277 43.2818 108.386 43.2818Z" fill="#757575"/>
</svg>
