<svg width="30" height="30" viewBox="0 0 30 30" fill="none" xmlns="http://www.w3.org/2000/svg">
<rect y="30" width="30" height="30" rx="15" transform="rotate(-90 0 30)" fill="#118AB2"/>
<path d="M8.07167 16.1972L7.2583 15.4044C6.9139 15.0688 6.9139 14.526 7.2583 14.1939L14.3771 7.25177C14.7215 6.9161 15.2785 6.9161 15.6192 7.25177L22.7417 14.1939C23.0861 14.5295 23.0861 15.0723 22.7417 15.4044L21.9283 16.1972C21.5803 16.5365 21.0124 16.5293 20.6716 16.1829L16.4655 11.8798L16.4655 22.143C16.4655 22.6179 16.0735 23 15.5862 23L14.4138 23C13.9265 23 13.5345 22.6179 13.5345 22.143L13.5345 11.8798L9.32837 16.1829C8.98763 16.5329 8.41974 16.54 8.07167 16.1972Z" fill="white"/>
</svg>
